# 3ds Max Wavefront OBJ Exporter v0.97b - (c)2007 guruware
# File Created: 30.11.2016 11:17:09

mtllib Player.mtl

#
# object Pyramid001
#

v  0.0000 0.5000 -0.0000
v  -0.5000 -0.0098 0.5000
v  0.5000 -0.0098 0.5000
v  0.5000 -0.0098 -0.5000
v  -0.5000 -0.0098 -0.5000
v  0.0000 -0.5098 0.0000
# 6 vertices

vn 0.0000 0.7002 0.7139
vn 0.0000 -0.0025 1.0000
vn 0.7139 0.7002 -0.0000
vn 1.0000 -0.0025 0.0000
vn 0.0000 0.7002 -0.7139
vn 0.0000 -0.0025 -1.0000
vn -0.7139 0.7002 -0.0000
vn -1.0000 -0.0025 0.0000
vn 0.0000 -0.7071 0.7071
vn 0.7071 -0.7071 0.0000
vn 0.0000 -0.7071 -0.7071
vn -0.7071 -0.7071 0.0000
# 12 vertex normals

vt 0.6979 0.5830 0.0000
vt 0.7131 0.9385 0.0000
vt 0.3428 0.6051 0.0000
vt 0.3863 0.0005 0.0000
vt 0.4014 0.3560 0.0000
vt 0.0312 0.0226 0.0000
vt 0.7107 0.7504 0.0000
vt 0.9647 0.5012 0.0000
vt 0.9647 0.9995 0.0000
vt 0.7593 0.2917 0.0000
vt 0.7744 0.6472 0.0000
vt 0.4042 0.3138 0.0000
vt 0.3767 0.9825 0.0000
vt 0.3582 0.6290 0.0000
vt 0.7302 0.9640 0.0000
vt 0.0190 0.9825 0.0000
vt 0.0005 0.6290 0.0000
vt 0.3726 0.9640 0.0000
vt 0.7312 0.2559 0.0000
vt 0.9815 0.0056 0.0000
vt 0.9815 0.5063 0.0000
vt 0.0190 0.3540 0.0000
vt 0.0005 0.0005 0.0000
vt 0.3726 0.3355 0.0000
# 24 texture coords

g Pyramid001
usemtl wire_027177027
s 4
f 1/1/1 2/2/2 3/3/2 
s 2
f 1/4/3 3/5/4 4/6/4 
s 16
f 1/7/5 4/8/6 5/9/6 
s 32
f 1/10/7 5/11/8 2/12/8 
s 4
f 6/13/9 3/14/2 2/15/2 
s 2
f 6/16/10 4/17/4 3/18/4 
s 16
f 6/19/11 5/20/6 4/21/6 
s 32
f 6/22/12 2/23/8 5/24/8 
# 0 polygons - 8 triangles

